<svg xmlns="http://www.w3.org/2000/svg" xmlns:xlink="http://www.w3.org/1999/xlink" version="1.1" id="レイヤー_1" x="0px" y="0px" viewBox="0 0 100.001 28.867" style="enable-background:new 0 0 100.001 28.867;" xml:space="preserve">
<g>
	<g>
		<g>
			<g>
				<path d="M59.188,7.954h-3.789V4.13h3.789V7.954z"/>
			</g>
			<g>
				<path d="M59.188,28.433h-3.789V10.965h3.789V28.433z"/>
			</g>
		</g>
		<path d="M73.624,13.935v-2.973h-2.661V4.126h-3.788v6.835h-1.832v2.973h1.832v9.898c0,1.465,0.431,2.602,1.279,3.377    c0.825,0.812,1.9,1.224,3.195,1.224h1.976v-3.611h-1.439c-0.413,0.011-0.72-0.085-0.921-0.285    c-0.212-0.212-0.314-0.55-0.301-1.009v-9.594H73.624z"/>
		<path d="M42.186,10.533c-1.851,0-3.317,0.655-4.426,1.718V4.126h-3.808v15.651v0.379v8.277h3.638v-1.454    c1.127,1.162,2.648,1.888,4.596,1.888c5.172,0,8.014-4.579,8.014-9.167C50.2,15.112,47.357,10.533,42.186,10.533z M41.972,24.862    c-2.884,0-4.12-2.586-4.12-5.178c0-2.592,1.235-5.178,4.12-5.178c2.884,0,4.47,2.586,4.47,5.178    C46.442,22.276,44.856,24.862,41.972,24.862z"/>
		<path d="M90.984,0h-3.966l-9.015,28.433h0.086h3.876h0.086l1.902-6.241h9.871l1.902,6.241h4.276L90.984,0z M85.103,18.419    l3.785-12.422l3.785,12.422H85.103z"/>
	</g>
	<polygon style="fill:#DC0014;" points="24.837,10.652 0,28.433 24.837,28.433  "/>
</g>
</svg>